<svg width="187" height="139" viewBox="0 0 187 139" fill="none" xmlns="http://www.w3.org/2000/svg">
<path d="M1.20759 137.004L0.535645 63.4659C0.817737 60.9732 22.4276 62.8192 23.3694 62.4139" stroke="#1E3557"/>
<rect x="22.3472" y="0.5" width="136.003" height="90.335" rx="5.5" fill="white" stroke="#1E3557"/>
<rect x="83.2368" y="64.4346" width="102.513" height="62.9345" rx="5.5" fill="white" stroke="#1E3557"/>
<path d="M140.673 98.749C140.733 98.9341 140.906 99.0594 141.101 99.0596H151.245L143.038 105.022C142.881 105.137 142.815 105.34 142.875 105.525L146.01 115.174L137.803 109.211L137.741 109.174C137.614 109.109 137.463 109.109 137.335 109.174L137.273 109.211L129.065 115.174L132.201 105.525C132.261 105.34 132.195 105.137 132.037 105.022L123.83 99.0596H133.975C134.169 99.0596 134.343 98.9343 134.403 98.749L137.538 89.1006L140.673 98.749Z" fill="#1E3557" stroke="#1E3557" stroke-width="0.5"/>
<path d="M0.262794 133.894L14.5929 68.7861C14.5929 68.7861 14.5929 67.2285 18.6427 67.2285H27.9884H42.9415C45.7452 67.2285 48.5489 71.9014 48.5489 71.9014C51.0429 75.3262 52.5454 77.0356 56.96 76.5742H91.8506H105.246C108.658 78.2027 109.971 79.26 109.296 81.8701L99.6387 133.894C98.2057 137.09 96.5937 138.192 91.8506 138.567H7.42783C1.94895 137.886 0.07413 136.993 0.262794 133.894Z" fill="#1E3557" stroke="#1E3557" stroke-width="0.5"/>
<rect x="107.093" y="73.0684" width="6.089" height="3.0445" fill="white"/>
<path d="M93.3281 42.0654C93.3883 42.2507 93.5611 42.3758 93.7559 42.376H108.325L96.5391 50.9395C96.3815 51.0539 96.315 51.2571 96.375 51.4424L100.877 65.2988L89.0908 56.7354L89.0293 56.6973C88.9019 56.6328 88.7505 56.6328 88.623 56.6973L88.5615 56.7354L76.7744 65.2988L81.2773 51.4424C81.3373 51.2571 81.2709 51.0539 81.1133 50.9395L69.3262 42.376H83.8965C84.0913 42.3758 84.264 42.2507 84.3242 42.0654L88.8262 28.21L93.3281 42.0654Z" fill="#1E3557" stroke="#1E3557" stroke-width="0.5"/>
<path d="M82.25 70C82.25 66.6863 84.9363 64 88.25 64H180.25C183.564 64 186.25 66.6863 186.25 70V85H82.25V70Z" fill="#1E3557"/>
<circle cx="97.9595" cy="73.0679" r="3.0445" fill="white"/>
<circle cx="116.227" cy="73.0679" r="3.0445" fill="white"/>
<circle cx="107.093" cy="73.0679" r="3.0445" fill="white"/>
<path d="M22.25 6C22.25 2.68629 24.9363 0 28.25 0H153.253C156.566 0 159.253 2.68629 159.253 6V21.3115H22.25V6Z" fill="#1E3557"/>
<circle cx="31.2945" cy="11.0445" r="3.0445" fill="white"/>
<circle cx="49.5616" cy="11.0445" r="3.0445" fill="white"/>
<circle cx="40.4283" cy="11.0445" r="3.0445" fill="white"/>
</svg>
