<svg width="1132" height="210" viewBox="0 0 1132 210" fill="none" xmlns="http://www.w3.org/2000/svg">
<g filter="url(#filter0_dd_33_380)">
<path d="M138.82 82.68C138.82 125.05 106.14 159.44 66.05 159.44H9.99999V5.73H66.05C106.14 5.73 138.82 40.31 138.82 82.68ZM25.39 20.55V144.62H63.96C92.08 144.62 119.82 121.44 122.86 88.95V88.38V88.19C122.86 88 122.86 88 122.86 87.81V87.62L123.05 87.24C123.05 85.91 123.05 84.39 123.05 82.68C123.05 82.3 123.05 81.73 123.05 81.35V80.97V80.78V80.59C122.1 46.39 93.79 20.55 63.96 20.55H25.39ZM161.382 159.44H141.052V138.54H161.382V159.44ZM291.001 159.44L192.201 23.59V159.44H176.621V5.73H198.471L297.081 141.58V5.73H312.661V159.44H291.001ZM581.164 82.68C581.164 125.05 548.484 159.44 508.394 159.44H452.344V5.73H508.394C548.484 5.73 581.164 40.31 581.164 82.68ZM467.734 20.55V144.62H506.304C534.424 144.62 562.164 121.44 565.204 88.95V88.38V88.19C565.204 88 565.204 88 565.204 87.81V87.62L565.394 87.24C565.394 85.91 565.394 84.39 565.394 82.68C565.394 82.3 565.394 81.73 565.394 81.35V80.97V80.78V80.59C564.444 46.39 536.134 20.55 506.304 20.55H467.734ZM711.791 26.12C711.791 56.48 787.471 82.66 787.471 132.6C787.471 165.38 757.991 194.2 705.411 194.2C672.851 194.2 647.991 179.68 636.111 159.44H587.051C587.051 159.44 587.051 159 587.051 158.78C600.031 158.78 602.451 155.7 602.451 126.88V38.22C602.451 9.39999 600.031 6.31999 587.051 6.31999C587.051 6.09999 587.051 5.65999 587.051 5.65999H679.231C679.451 7.63999 684.291 44.16 684.291 44.16C684.071 44.16 683.631 44.16 683.631 44.16C681.431 30.96 674.831 7.63999 649.311 7.63999H616.751V157.46H635.011C630.831 149.76 628.631 141.18 628.631 132.6C628.631 122.92 631.271 113.68 636.111 105.54C649.971 81.34 668.011 77.38 668.011 62.2C668.231 62.2 668.671 62.2 668.891 62.2V97.62C668.671 97.62 668.231 97.62 668.011 97.62C668.011 84.42 648.431 88.16 637.211 107.74C636.991 108.18 636.551 109.28 636.331 109.5C632.591 116.76 630.611 124.46 630.611 132.6C630.611 141.18 633.031 149.76 637.431 157.46H652.391C677.911 157.46 684.511 134.14 686.711 120.94C686.931 120.94 687.151 120.94 687.371 120.94C687.371 120.94 682.531 157.24 682.311 159.66H638.531C650.411 178.36 674.391 192.22 705.411 192.22C754.911 192.22 773.171 161.64 773.171 139.86C773.171 90.58 697.711 65.94 697.711 32.5C697.711 11.82 717.951 3.45999 740.171 3.45999C756.451 3.45999 769.431 6.53999 777.791 12.26C778.011 13.8 782.851 50.76 782.851 50.76C782.631 50.76 782.411 50.76 782.191 50.76C780.211 37.78 772.071 12.7 749.411 6.76C745.451 5.88 741.491 5.43999 737.531 5.43999C721.691 5.43999 711.791 12.04 711.791 26.12ZM821.039 159.44H805.459V5.73H821.039V159.44ZM913.076 98.64V83.63H975.586V159.44H962.286L960.006 142.53C947.466 155.45 929.796 162.48 908.896 162.48C864.816 162.48 836.506 131.13 836.506 82.49C836.506 57.79 843.916 37.08 857.786 22.83C870.706 9.71999 888.756 2.49999 908.896 2.49999C939.866 2.49999 964.756 17.89 975.586 52.09H959.246C950.316 27.77 929.036 18.08 908.896 18.08C880.966 18.08 852.086 36.13 852.086 82.49C852.086 130.56 883.056 146.9 908.896 146.9C929.606 146.9 960.006 138.35 960.006 98.64H913.076ZM1107.8 159.44L1009 23.59V159.44H993.418V5.73H1015.27L1113.88 141.58V5.73H1129.46V159.44H1107.8Z" fill="#1E1F22"/>
</g>
<defs>
<filter id="filter0_dd_33_380" x="0" y="0" width="1131.96" height="209.2" filterUnits="userSpaceOnUse" color-interpolation-filters="sRGB">
<feFlood flood-opacity="0" result="BackgroundImageFix"/>
<feColorMatrix in="SourceAlpha" type="matrix" values="0 0 0 0 0 0 0 0 0 0 0 0 0 0 0 0 0 0 127 0" result="hardAlpha"/>
<feOffset dx="-3" dy="3"/>
<feGaussianBlur stdDeviation="2.75"/>
<feComposite in2="hardAlpha" operator="out"/>
<feColorMatrix type="matrix" values="0 0 0 0 0 0 0 0 0 0 0 0 0 0 0 0 0 0 0.25 0"/>
<feBlend mode="normal" in2="BackgroundImageFix" result="effect1_dropShadow_33_380"/>
<feColorMatrix in="SourceAlpha" type="matrix" values="0 0 0 0 0 0 0 0 0 0 0 0 0 0 0 0 0 0 127 0" result="hardAlpha"/>
<feOffset dx="-6" dy="11"/>
<feGaussianBlur stdDeviation="2"/>
<feComposite in2="hardAlpha" operator="out"/>
<feColorMatrix type="matrix" values="0 0 0 0 0 0 0 0 0 0 0 0 0 0 0 0 0 0 0.25 0"/>
<feBlend mode="normal" in2="effect1_dropShadow_33_380" result="effect2_dropShadow_33_380"/>
<feBlend mode="normal" in="SourceGraphic" in2="effect2_dropShadow_33_380" result="shape"/>
</filter>
</defs>
</svg>
