<svg width="162" height="131" viewBox="0 0 162 131" fill="none" xmlns="http://www.w3.org/2000/svg">
<path d="M112.955 0.0126953C118.239 0.280632 122.44 4.64984 122.44 10V104.946L122.427 105.461C122.167 110.574 118.068 114.673 112.955 114.933L112.44 114.946H105.786L105.271 114.933C100.159 114.673 96.0582 110.574 95.7988 105.461L95.7861 104.946V102.584C75.2455 88.1151 63.5036 83.295 42.3994 78.2197L42.1318 78.1553V77.6406C41.3975 78.6137 40.4888 79.4466 39.4531 80.0967L53.3379 129.187C53.5788 130.038 52.9796 130.88 52.126 130.961L51.9531 130.968L26.084 130.277C25.5082 130.262 24.9996 129.895 24.8037 129.354L7.43457 81.2891C3.15501 80.1562 0 76.2589 0 71.623V44.9785C4.68443e-05 39.4557 4.47718 34.9785 10 34.9785H34.1455C37.4086 34.9785 40.3066 36.5419 42.1318 38.96V38.874L42.3965 38.8076C64.8561 33.2083 76.7816 28.3183 95.7861 14.0352V10C95.7862 4.47731 100.263 0.000206894 105.786 0H112.44L112.955 0.0126953ZM38.5547 80.5986C37.2244 81.2533 35.7283 81.623 34.1455 81.623H10C9.51816 81.623 9.04469 81.5864 8.58105 81.5205L25.7441 129.013C25.8 129.167 25.946 129.273 26.1104 129.277L51.9795 129.967C52.2489 129.974 52.4483 129.718 52.375 129.459L38.5547 80.5986ZM105.786 1C100.816 1.00021 96.7862 5.0296 96.7861 10V104.946C96.7864 109.917 100.816 113.946 105.786 113.946H112.44C117.411 113.946 121.44 109.917 121.44 104.946V10C121.44 5.18477 117.659 1.25273 112.903 1.01172L112.44 1H105.786ZM139.434 75.7168C140.663 74.0779 142.989 73.7462 144.628 74.9756L152.971 81.2344C154.61 82.4639 154.942 84.7897 153.713 86.4287C152.483 88.0677 150.158 88.3995 148.519 87.1699L140.176 80.9111C138.537 79.6815 138.204 77.3558 139.434 75.7168ZM130.346 38.1123C133.341 38.1123 135.77 46.8838 135.77 55.1953C135.769 63.5067 133.341 71.4648 130.346 71.4648C128.48 71.4643 128.645 63.5065 128.645 55.1953C128.645 46.884 128.48 38.1129 130.346 38.1123ZM158.35 54.4883C160.393 54.5159 162.028 56.1947 162 58.2383C161.972 60.2819 160.294 61.9162 158.25 61.8887L147.141 61.7393C145.097 61.7117 143.463 60.0319 143.49 57.9883C143.518 55.9449 145.197 54.3104 147.24 54.3379L158.35 54.4883ZM149.661 21.0752C151.231 19.767 153.565 19.979 154.873 21.5488C156.181 23.1188 155.969 25.4522 154.399 26.7607L144.789 34.7705C143.219 36.079 140.886 35.8675 139.577 34.2979C138.269 32.728 138.48 30.3945 140.05 29.0859L149.661 21.0752Z" fill="#1E3557"/>
<path d="M75.4658 51.2227C75.526 51.4079 75.6988 51.533 75.8936 51.5332H88.8271L78.3643 59.1348C78.2066 59.2493 78.1401 59.4524 78.2002 59.6377L82.1953 71.9355L71.7344 64.3359L71.6729 64.2979C71.5454 64.2334 71.394 64.2334 71.2666 64.2979L71.2051 64.3359L60.7432 71.9355L64.7393 59.6377C64.7993 59.4525 64.7336 59.2493 64.5762 59.1348L54.1133 51.5332H67.0459C67.2407 51.5331 67.4134 51.4079 67.4736 51.2227L71.4697 38.9238L75.4658 51.2227Z" fill="white" stroke="white" stroke-width="0.5"/>
<path d="M22.0022 121.386C21.5166 120.08 22.483 118.689 23.8769 118.689H48.1502C48.986 118.689 49.7337 119.209 50.0249 119.993L52.9979 127.993C53.4834 129.299 52.517 130.689 51.1231 130.689H26.8499C26.014 130.689 25.2663 130.17 24.9751 129.386L22.0022 121.386Z" fill="#1E3557"/>
</svg>
