<svg width="179" height="119" viewBox="0 0 179 119" fill="none" xmlns="http://www.w3.org/2000/svg">
<rect x="0.5" y="0.5" width="177.5" height="118" rx="5.5" fill="white" stroke="#1E3557"/>
<path d="M93.2178 62.7588C93.278 62.944 93.4507 63.0701 93.6455 63.0703H112.904L97.3242 74.3906C97.1666 74.5052 97.0999 74.7082 97.1602 74.8936L103.11 93.208L87.5312 81.8896L87.4697 81.8516C87.3423 81.7871 87.1909 81.7871 87.0635 81.8516L87.002 81.8896L71.4219 93.208L77.373 74.8936C77.4333 74.7082 77.3667 74.5052 77.209 74.3906L61.6289 63.0703H80.8877C81.0825 63.0702 81.2552 62.9441 81.3154 62.7588L87.2666 44.4434L93.2178 62.7588Z" fill="#1E3557" stroke="#1E3557" stroke-width="0.5"/>
<path d="M0 7C0 3.68629 2.68629 1 6 1H172.5C175.814 1 178.5 3.68629 178.5 7V28.7667H0V7Z" fill="#1E3557"/>
<circle cx="13.9667" cy="14.9667" r="3.96667" fill="white"/>
<circle cx="37.7665" cy="14.9667" r="3.96667" fill="white"/>
<circle cx="25.8666" cy="14.9667" r="3.96667" fill="white"/>
</svg>
